<?xml version="1.0" encoding="UTF-8"?>
<svg id="Capa_2" data-name="Capa 2" xmlns="http://www.w3.org/2000/svg" viewBox="0 0 512 512">
  <defs>
    <style>
      .cls-1 {
        fill: #e6ebec;
      }

      .cls-2 {
        fill: #032b44;
      }
    </style>
  </defs>
  <g id="Capa_1-2" data-name="Capa 1">
    <path class="cls-2" d="M284,0c-.56,3.22,1.63,1.71,3.5,1.95,116.35,14.92,208.16,105.78,222.55,222.55.23,1.87-1.26,4.06,1.95,3.5v55c-3.23-.56-1.71,1.64-1.95,3.5-8.95,69.01-38.59,121.25-91.05,165.5-31.09-19.87-65.76-33.8-98.33-51.17-7.43-5.69-12.71-13.86-13.66-23.34-.49-4.96-.86-31.29.19-34.79.35-1.15,5.68-7,7.02-8.98,8.53-12.56,15.32-24.74,21.26-38.74.92-2.17,4.23-13.24,4.74-13.76.31-.32,4.86-1.54,6.71-2.79,4.71-3.19,10.19-10.22,10.98-16.02,1.18-8.63,1.17-36.2,0-44.83-1-7.36-7.4-10.83-7.96-15.04-4.46-33.37,9.91-67.5-14.98-97.02-29.09-34.5-106.77-35.54-142.88-12.94-40.56,25.37-28.2,70.29-30.11,110.89-3.54,5.23-7.21,8.18-7.98,15.02-1.03,9.17-1.13,34.94.09,43.92,1.39,10.2,8.57,11.4,11.34,16.66,2.1,3.99,3.83,13.89,5.83,19.17,2.9,7.69,7.2,16.6,11.23,23.77,2.53,4.51,12.18,17.03,13.08,19.92,1.26,4.08,1,33.19.2,38.32-1.03,6.6-6.02,14.58-11.43,18.57-30.26,18.28-62.79,32.81-92.33,52.17C42.6,409,8.37,352.52,1.97,286.49c-.18-1.89,1.2-4.04-1.97-3.49v-55c3.22.56,1.72-1.63,1.95-3.5C16.34,107.75,108.08,16.88,224.5,1.95c1.87-.24,4.06,1.27,3.5-1.95h56Z"/>
    <path class="cls-1" d="M92,451c29.54-19.37,62.07-33.89,92.33-52.17,5.41-3.99,10.4-11.97,11.43-18.57.8-5.13,1.06-34.24-.2-38.32-.89-2.89-10.55-15.42-13.08-19.92-4.02-7.17-8.32-16.08-11.23-23.77-1.99-5.28-3.73-15.18-5.83-19.17-2.77-5.27-9.95-6.47-11.34-16.66-1.22-8.98-1.12-34.75-.09-43.92.77-6.84,4.44-9.79,7.98-15.02,1.91-40.6-10.45-85.52,30.11-110.89,36.12-22.59,113.8-21.56,142.88,12.94,24.89,29.53,10.52,63.65,14.98,97.02.56,4.21,6.96,7.68,7.96,15.04,1.17,8.63,1.18,36.2,0,44.83-.79,5.8-6.27,12.83-10.98,16.02-1.84,1.25-6.39,2.48-6.71,2.79-.51.52-3.82,11.59-4.74,13.76-5.95,14-12.73,26.18-21.26,38.74-1.34,1.98-6.67,7.83-7.02,8.98-1.05,3.5-.68,29.83-.19,34.79.94,9.49,6.23,17.65,13.66,23.34,32.57,17.36,67.25,31.3,98.33,51.17-37.47,31.6-82.46,53.18-132.51,58.03-1.89.18-4.04-1.2-3.49,1.97h-54c.56-3.18-1.6-1.77-3.49-1.97-50.99-5.34-95.4-26.63-133.51-59.03Z"/>
  </g>
</svg>