<?xml version="1.0" encoding="UTF-8"?>
<svg id="Capa_2" data-name="Capa 2" xmlns="http://www.w3.org/2000/svg" viewBox="0 0 593.29 90.27">
  <defs>
    <style>
      .cls-1 {
        fill: #fff;
      }
    </style>
  </defs>
  <g id="Capa_1-2" data-name="Capa 1">
    <g>
      <path class="cls-1" d="M35.74,72.93c2.95,0,6.49-.73,10.6-2.19v15.99c-2.96,1.27-5.77,2.18-8.44,2.72-2.67.54-5.81.81-9.4.81-7.37,0-12.68-1.8-15.93-5.41-3.25-3.61-4.88-9.15-4.88-16.63v-26.2H0v-8.92l9.76-6.9,5.67-13.35h14.36v12.74h15.6v16.44h-15.6v24.74c0,4.11,1.98,6.17,5.95,6.17Z"/>
      <path class="cls-1" d="M102.72,89.15l-2.75-7.91h-1.29c-1.83,2.92-4.39,5.15-7.66,6.7-3.27,1.55-7.12,2.33-11.53,2.33-6.99,0-12.44-2.03-16.33-6.09-3.89-4.06-5.83-9.79-5.83-17.2V25.58h21.94v34.73c0,4.15.59,7.29,1.77,9.43s3.11,3.2,5.81,3.2c3.78,0,6.47-1.49,8.08-4.46,1.61-2.97,2.41-7.99,2.41-15.06v-27.83h21.94v63.56h-16.55Z"/>
      <path class="cls-1" d="M172.8,24.46c1.91,0,3.72.15,5.44.45l1.23.22-1.96,20.7c-1.79-.45-4.28-.67-7.46-.67-4.79,0-8.27,1.09-10.44,3.28-2.17,2.19-3.25,5.34-3.25,9.45v31.25h-21.94V25.58h16.33l3.42,10.15h1.07c1.83-3.37,4.38-6.09,7.66-8.16,3.27-2.08,6.57-3.11,9.9-3.11Z"/>
      <path class="cls-1" d="M228.45,89.15v-34.67c0-4.23-.61-7.41-1.82-9.57-1.22-2.15-3.17-3.23-5.86-3.23-3.7,0-6.38,1.48-8.02,4.43-1.65,2.96-2.47,8.02-2.47,15.2v27.83h-21.94V25.58h16.55l2.75,7.85h1.29c1.87-2.99,4.46-5.24,7.77-6.73,3.31-1.5,7.12-2.24,11.42-2.24,7.03,0,12.5,2.04,16.41,6.12,3.91,4.08,5.86,9.82,5.86,17.22v41.35h-21.94Z"/>
      <path class="cls-1" d="M326.02,57.23c0,10.4-2.8,18.51-8.39,24.32-5.59,5.82-13.42,8.72-23.48,8.72s-17.33-2.97-23.03-8.92c-5.7-5.95-8.56-13.99-8.56-24.12s2.8-18.41,8.39-24.15c5.59-5.74,13.44-8.61,23.54-8.61,6.25,0,11.76,1.33,16.55,3.98,4.79,2.66,8.48,6.46,11.08,11.42,2.6,4.96,3.9,10.74,3.9,17.36ZM284.84,57.23c0,5.46.73,9.62,2.19,12.48,1.46,2.86,3.91,4.29,7.35,4.29s5.81-1.43,7.21-4.29c1.4-2.86,2.1-7.02,2.1-12.48s-.71-9.52-2.13-12.29c-1.42-2.77-3.85-4.15-7.29-4.15s-5.78,1.37-7.24,4.12c-1.46,2.75-2.19,6.85-2.19,12.31Z"/>
      <path class="cls-1" d="M361.64,89.15h-21.82V7.12h48.47v17.78h-26.65v15.65h24.57v17.78h-24.57v30.8Z"/>
      <path class="cls-1" d="M441.93,89.15l-4.21-8.42h-.45c-2.96,3.67-5.97,6.17-9.03,7.52-3.07,1.35-7.03,2.02-11.89,2.02-5.98,0-10.7-1.8-14.14-5.39-3.44-3.59-5.16-8.64-5.16-15.15s2.36-11.81,7.07-15.12,11.54-5.17,20.48-5.58l10.6-.34v-.9c0-5.24-2.58-7.85-7.74-7.85-4.64,0-10.53,1.57-17.67,4.71l-6.34-14.47c7.41-3.82,16.75-5.72,28.05-5.72,8.15,0,14.47,2.02,18.94,6.06,4.47,4.04,6.7,9.69,6.7,16.94v41.68h-15.2ZM425.66,74.79c2.66,0,4.93-.84,6.82-2.52,1.89-1.68,2.83-3.87,2.83-6.56v-4.94l-5.05.22c-7.22.26-10.83,2.92-10.83,7.97,0,3.89,2.08,5.83,6.23,5.83Z"/>
      <path class="cls-1" d="M501,90.27c-10.4,0-18.28-2.81-23.65-8.42-5.37-5.61-8.05-13.67-8.05-24.18s2.9-18.72,8.7-24.52c5.8-5.8,14.04-8.7,24.74-8.7,7.37,0,14.31,1.61,20.81,4.82l-6.45,16.21c-2.66-1.16-5.11-2.08-7.35-2.78-2.24-.69-4.58-1.04-7.01-1.04-3.55,0-6.3,1.38-8.25,4.15-1.95,2.77-2.92,6.68-2.92,11.73,0,10.17,3.76,15.26,11.28,15.26,6.43,0,12.6-1.87,18.51-5.61v17.45c-5.65,3.74-12.44,5.61-20.37,5.61Z"/>
      <path class="cls-1" d="M533.54,9.76c0-3.29.92-5.74,2.75-7.35,1.83-1.61,4.79-2.41,8.86-2.41s7.05.82,8.92,2.47c1.87,1.65,2.8,4.08,2.8,7.29,0,6.43-3.91,9.65-11.73,9.65s-11.61-3.22-11.61-9.65ZM556.04,89.15h-21.94V25.58h21.94v63.56Z"/>
      <path class="cls-1" d="M593.29,89.15h-21.94V1.85h21.94v87.3Z"/>
    </g>
  </g>
</svg>